# File created by Blade
# Date/Time:  Wed Sep 24 19:25:39 2014
# Frame Rate: 120.000 fps
#------------------------------------------------------
:FULLY-SPECIFIED
:DEGREES
930
root -16.013049 33.106495 -3.942169 15.052024 -15.609586 7.212978
Spine -17.654592 10.985746 -0.624440
Head 11.575666 -1.724186 1.798442
LeftShoulder -14.954769 27.471554 8.736497
LeftArm 17.599965 20.362014 -71.377591
LeftForeArm 12.732656 -0.000000 51.365994
LeftHand -26.424357 -0.000000 -1.964965
LeftHandThumb1 -26.253704 0.000000 33.147579
RightShoulder -17.516214 8.122392 -20.243372
RightArm -12.179473 -23.350053 82.908068
RightForeArm -13.949055 0.000000 60.780382
RightHand 0.723786 -0.000000 -31.731250
RightHandThumb1 -24.326973 -0.000000 -32.862282
LeftUpLeg -50.292589 40.088400 -9.006748
LeftLeg 120.004946 -0.000000 -0.000000
LeftFoot 37.081221 12.773175 -25.907283
LeftToeBase 17.182682 -0.000000 -0.000000
RightUpLeg -14.335130 2.477195 -1.389937
RightLeg 3.816744 -0.000000 -0.000000
RightFoot -9.211376 2.329966 -9.758048
RightToeBase -2.921960 -0.000000 0.000000
931
root -16.035446 33.101289 -3.926010 14.991329 -14.925990 7.231909
Spine -17.692228 10.464651 -0.502675
Head 11.778410 -1.930468 1.890325
LeftShoulder -14.810157 27.367498 8.834165
LeftArm 17.780678 20.498040 -71.146403
LeftForeArm 12.789057 -0.000000 50.999175
LeftHand -26.333199 -0.000000 -2.151034
LeftHandThumb1 -26.253704 0.000000 33.147579
RightShoulder -17.634514 7.946042 -20.170112
RightArm -12.287658 -23.203017 82.740230
RightForeArm -13.945226 -0.000000 60.955433
RightHand 0.676803 -0.000000 -31.832626
RightHandThumb1 -24.326973 -0.000000 -32.862282
LeftUpLeg -51.770630 41.832553 -10.700595
LeftLeg 120.452688 -0.000000 -0.000000
LeftFoot 36.907707 13.123717 -26.217490
LeftToeBase 17.462433 -0.000000 -0.000000
RightUpLeg -14.150919 2.239896 -1.309483
RightLeg 3.799024 -0.000000 -0.000000
RightFoot -9.266868 2.080528 -9.646662
RightToeBase -2.850840 -0.000000 0.000000
932
root -16.057728 33.092889 -3.907479 14.909505 -14.146615 7.219949
Spine -17.698171 9.881341 -0.293577
Head 11.978242 -2.128249 1.932890
LeftShoulder -14.664358 27.266273 8.917002
LeftArm 17.942579 20.614682 -70.967933
LeftForeArm 12.958656 0.000000 50.638868
LeftHand -26.237364 -0.000000 -2.135599
LeftHandThumb1 -26.253704 0.000000 33.147579
RightShoulder -17.759083 7.744198 -20.140742
RightArm -12.374317 -23.066829 82.563660
RightForeArm -13.845602 -0.000000 61.131903
RightHand 0.674751 -0.000000 -31.745502
RightHandThumb1 -24.326973 -0.000000 -32.862282
LeftUpLeg -53.196556 43.332722 -12.253771
LeftLeg 120.852171 -0.000000 -0.000000
LeftFoot 36.735209 13.401615 -26.384257
LeftToeBase 17.526154 -0.000000 -0.000000
RightUpLeg -13.922974 1.862137 -1.165695
RightLeg 3.782702 -0.000000 -0.000000
RightFoot -9.355541 1.895795 -9.595096
RightToeBase -2.911503 -0.000000 0.000000
933
root -16.089937 33.081557 -3.891041 14.801056 -13.438762 7.121768
Spine -17.633907 9.397208 -0.024989
Head 12.134901 -2.320551 1.976898
LeftShoulder -14.520159 27.187592 8.985386
LeftArm 18.135878 20.659287 -70.785440
LeftForeArm 12.965842 0.000000 50.299656
LeftHand -26.152327 -0.000000 -2.231510
LeftHandThumb1 -26.253704 0.000000 33.147579
RightShoulder -17.883655 7.571187 -20.105528
RightArm -12.446813 -22.929125 82.397125
RightForeArm -13.780559 0.000000 61.271162
RightHand 0.681696 -0.000000 -31.871211
RightHandThumb1 -24.326973 -0.000000 -32.862282
LeftUpLeg -54.546886 44.795365 -13.571081
LeftLeg 121.202568 -0.000000 -0.000000
LeftFoot 36.746044 13.422445 -26.318443
LeftToeBase 16.972890 -0.000000 -0.000000
RightUpLeg -13.694446 1.568478 -0.931219
RightLeg 3.841278 -0.000000 -0.000000
RightFoot -9.453528 1.690694 -9.591456
RightToeBase -2.861119 -0.000000 0.000000
934
root -16.116049 33.071062 -3.879234 14.726033 -12.724640 7.023566
Spine -17.592223 8.928939 0.262723
Head 12.254137 -2.507021 1.979114
LeftShoulder -14.369393 27.087018 9.018585
LeftArm 18.300088 20.645865 -70.639136
LeftForeArm 13.018072 -0.000000 49.957800
LeftHand -26.073471 -0.000000 -2.140848
LeftHandThumb1 -26.253704 0.000000 33.147579
RightShoulder -18.017485 7.422846 -20.106711
RightArm -12.522934 -22.873109 82.217290
RightForeArm -13.717184 0.000000 61.391531
RightHand 0.675404 0.000000 -32.110789
RightHandThumb1 -24.326973 -0.000000 -32.862282
LeftUpLeg -55.932545 46.067915 -14.875851
LeftLeg 121.482349 -0.000000 -0.000000
LeftFoot 36.803025 13.450121 -26.020965
LeftToeBase 16.284001 -0.000000 -0.000000
RightUpLeg -13.508245 1.313548 -0.725982
RightLeg 3.891605 -0.000000 -0.000000
RightFoot -9.554109 1.493439 -9.486996
RightToeBase -2.760290 -0.000000 0.000000
935
root -16.142868 33.059383 -3.859925 14.652867 -12.052428 6.956180
Spine -17.604099 8.490935 0.466553
Head 12.404357 -2.705466 2.044460
LeftShoulder -14.236888 27.027591 9.081458
LeftArm 18.460973 20.658049 -70.463383
LeftForeArm 12.921120 -0.000000 49.662381
LeftHand -26.180130 -0.000000 -2.091655
LeftHandThumb1 -26.253704 0.000000 33.147579
RightShoulder -18.170522 7.252438 -20.053068
RightArm -12.605892 -22.826706 82.017254
RightForeArm -13.658380 -0.000000 61.569509
RightHand 0.524788 -0.000000 -32.479418
RightHandThumb1 -24.326973 -0.000000 -32.862282
LeftUpLeg -57.080475 47.187437 -15.935513
LeftLeg 121.692204 -0.000000 -0.000000
LeftFoot 37.068466 12.966787 -25.784236
LeftToeBase 14.972982 -0.000000 -0.000000
RightUpLeg -13.275092 1.205702 -0.593053
RightLeg 3.839141 -0.000000 -0.000000
RightFoot -9.616406 1.237094 -9.278683
RightToeBase -2.749944 -0.000000 0.000000
936
root -16.164525 33.050025 -3.840039 14.614381 -11.387043 6.925918
Spine -17.687405 8.049922 0.636671
Head 12.591284 -2.855348 2.084730
LeftShoulder -14.128118 26.988238 9.088382
LeftArm 18.619823 20.650571 -70.243171
LeftForeArm 12.732647 -0.000000 49.368458
LeftHand -26.298241 0.000000 -1.960599
LeftHandThumb1 -26.253704 0.000000 33.147579
RightShoulder -18.304355 7.075216 -20.042627
RightArm -12.710693 -22.843365 81.908657
RightForeArm -13.904066 -0.000000 61.713823
RightHand 0.129355 -0.000000 -32.770431
RightHandThumb1 -24.326973 -0.000000 -32.862282
LeftUpLeg -58.087882 48.064285 -16.849151
LeftLeg 121.737105 -0.000000 -0.000000
LeftFoot 37.843603 11.406604 -24.029484
LeftToeBase 13.861815 -0.000000 -0.000000
RightUpLeg -13.223085 0.840221 -0.449083
RightLeg 4.079376 -0.000000 -0.000000
RightFoot -9.833055 1.158686 -9.188315
RightToeBase -2.707810 -0.000000 0.000000
937
root -16.186385 33.037539 -3.823660 14.571874 -10.693729 6.866585
Spine -17.738716 7.587620 0.864480
Head 12.743343 -2.980737 2.104375
LeftShoulder -14.044988 26.974509 9.074050
LeftArm 18.805549 20.599080 -70.068859
LeftForeArm 12.593235 -0.000000 49.047863
LeftHand -26.308764 -0.000000 -1.755264
LeftHandThumb1 -26.253704 0.000000 33.147579
RightShoulder -18.413250 6.915220 -20.057974
RightArm -12.794871 -22.779542 81.773146
RightForeArm -13.879635 0.000000 61.832367
RightHand 0.140567 -0.000000 -32.856058
RightHandThumb1 -24.326973 -0.000000 -32.862282
LeftUpLeg -58.501686 48.487284 -16.903688
LeftLeg 121.828350 -0.000000 -0.000000
LeftFoot 38.529971 9.573468 -22.136553
LeftToeBase 13.038918 -0.000000 -0.000000
RightUpLeg -13.328058 0.107599 -0.207345
RightLeg 4.646959 -0.000000 -0.000000
RightFoot -10.246602 1.399825 -9.205135
RightToeBase -2.670101 -0.000000 0.000000
938
root -16.211277 33.026214 -3.812659 14.563928 -9.996009 6.734015
Spine -17.799922 7.153198 1.194199
Head 12.879744 -3.080143 2.047387
LeftShoulder -13.976780 26.889522 9.025781
LeftArm 18.933818 20.569616 -69.917242
LeftForeArm 12.290566 -0.000000 48.713661
LeftHand -26.355197 0.000000 -1.471176
LeftHandThumb1 -26.253704 0.000000 33.147579
RightShoulder -18.518003 6.794788 -20.085728
RightArm -12.903215 -22.733026 81.599292
RightForeArm -13.825618 -0.000000 61.996085
RightHand 0.106864 -0.000000 -32.911377
RightHandThumb1 -24.326973 -0.000000 -32.862282
LeftUpLeg -58.607697 48.693418 -16.454099
LeftLeg 121.901871 -0.000000 -0.000000
LeftFoot 38.488911 10.096182 -20.977448
LeftToeBase 12.878879 -0.000000 -0.000000
RightUpLeg -13.473471 -0.469163 0.075694
RightLeg 5.196470 -0.000000 -0.000000
RightFoot -10.538345 1.588960 -9.156996
RightToeBase -2.798011 -0.000000 0.000000
